<?xml version="1.0" encoding="UTF-8"?>
<svg xmlns="http://www.w3.org/2000/svg" xmlns:xlink="http://www.w3.org/1999/xlink" viewBox="0 0 24 24" width="24px" height="24px">
<g id="surface1007570">
<path style=" stroke:none;fill-rule:nonzero;fill:rgb(60.000002%,60.000002%,60.000002%);fill-opacity:1;" d="M 12 2.25 C 6.617188 2.25 2.25 6.617188 2.25 12 C 2.25 17.382812 6.617188 21.75 12 21.75 C 17.382812 21.75 21.75 17.382812 21.75 12 C 21.75 6.617188 17.382812 2.25 12 2.25 Z M 18.558594 7.003906 C 19.585938 8.347656 20.207031 10.015625 20.246094 11.824219 C 18.566406 11.507812 16.621094 11.351562 14.5625 11.769531 C 14.316406 11.199219 14.058594 10.628906 13.78125 10.0625 C 16.203125 9.050781 17.75 7.792969 18.558594 7.003906 Z M 17.539062 5.890625 C 16.835938 6.566406 15.394531 7.75 13.070312 8.703125 C 12.183594 7.066406 11.167969 5.476562 10.050781 3.984375 C 10.675781 3.832031 11.328125 3.75 12 3.75 C 14.128906 3.75 16.070312 4.5625 17.539062 5.890625 Z M 8.558594 4.503906 C 9.703125 5.988281 10.742188 7.574219 11.644531 9.214844 C 9.621094 9.855469 7.082031 10.28125 3.957031 10.171875 C 4.53125 7.648438 6.261719 5.566406 8.558594 4.503906 Z M 3.75 12 C 3.75 11.886719 3.753906 11.773438 3.757812 11.664062 C 4.175781 11.679688 4.585938 11.691406 4.984375 11.691406 C 7.953125 11.691406 10.390625 11.234375 12.367188 10.585938 C 12.625 11.109375 12.867188 11.632812 13.097656 12.160156 C 10.75 12.945312 8.292969 14.5625 5.9375 17.585938 C 4.582031 16.117188 3.75 14.152344 3.75 12 Z M 7.050781 18.597656 C 9.25 15.75 11.5 14.246094 13.671875 13.542969 C 14.457031 15.570312 15.019531 17.605469 15.316406 19.550781 C 14.300781 20 13.179688 20.25 12 20.25 C 10.144531 20.25 8.429688 19.632812 7.050781 18.597656 Z M 16.710938 18.765625 C 16.390625 16.945312 15.855469 15.058594 15.136719 13.179688 C 16.910156 12.871094 18.601562 13.027344 20.140625 13.332031 C 19.773438 15.574219 18.5 17.515625 16.710938 18.765625 Z M 16.710938 18.765625 "/>
</g>
</svg>
