<?xml version="1.0" encoding="UTF-8"?>
<svg xmlns="http://www.w3.org/2000/svg" xmlns:xlink="http://www.w3.org/1999/xlink" viewBox="0 0 24 24" width="24px" height="24px">
<g id="surface9347411">
<path style=" stroke:none;fill-rule:nonzero;fill:rgb(60.000002%,60.000002%,60.000002%);fill-opacity:1;" d="M 18 2.625 L 6 2.625 C 4.34375 2.625 3 3.96875 3 5.625 L 3 17.625 C 3 19.28125 4.34375 20.625 6 20.625 L 12.375 20.625 L 12.375 14.25 L 10.125 14.25 L 10.125 11.625 L 12.375 11.625 L 12.375 9.75 C 12.375 7.125 13.875 5.625 16.125 5.625 C 17.300781 5.625 18 6 18 6 L 18 8.25 L 16.5 8.25 C 15.425781 8.25 15 9.035156 15 9.75 L 15 11.625 L 17.625 11.625 L 17.25 14.25 L 15 14.25 L 15 20.625 L 18 20.625 C 19.65625 20.625 21 19.28125 21 17.625 L 21 5.625 C 21 3.96875 19.65625 2.625 18 2.625 Z M 18 2.625 "/>
</g>
</svg>
