<svg xmlns="http://www.w3.org/2000/svg" height="800" width="1200" viewBox="-1.95 -4.5 16.9 27"><path d="M12.3348 17.307l-1.535-1.9744c-.1143-.147-.3102-.2358-.5205-.2358H2.7207c-.2103 0-.4062.0887-.5205.2358L.6654 17.3067c-.0487.0626-.0745.1355-.0745.21v.3014c0 .1005.084.1819.1876.1819h11.443c.1036 0 .1876-.0814.1876-.182v-.3012a.34.34 0 00-.0743-.2098M9.3463 6.9474c0-4.3584-.7694-6.165-2.8847-6.165-1.8655 0-2.8078 1.2664-2.8078 5.6622 0 4.3398.7308 6.1279 2.8847 6.1279 1.9039 0 2.8078-1.248 2.8078-5.625M0 6.8357C0 1.937 3.4808 0 6.577 0 9.8847 0 13 1.9185 13 6.5377c0 4.9358-3.4807 6.8171-6.577 6.8171C3.1154 13.3548 0 11.306 0 6.8358" fill="#1C85E8"/></svg>